<svg width="25" height="24" viewBox="0 0 25 24" fill="none" xmlns="http://www.w3.org/2000/svg">
<path d="M18.9703 16.83L19.3603 19.99C19.4603 20.82 18.5703 21.4 17.8603 20.97L13.6703 18.48C13.2103 18.48 12.7603 18.45 12.3203 18.39C13.0603 17.52 13.5003 16.42 13.5003 15.23C13.5003 12.39 11.0403 10.09 8.00034 10.09C6.84034 10.09 5.77034 10.42 4.88034 11C4.85034 10.75 4.84033 10.5 4.84033 10.24C4.84033 5.68999 8.79033 2 13.6703 2C18.5503 2 22.5003 5.68999 22.5003 10.24C22.5003 12.94 21.1103 15.33 18.9703 16.83Z" stroke="white" stroke-width="1.5" stroke-linecap="round" stroke-linejoin="round"/>
<path d="M13.5005 15.23C13.5005 16.42 13.0605 17.52 12.3205 18.39C11.3305 19.59 9.76049 20.36 8.00049 20.36L5.39049 21.91C4.95049 22.18 4.39049 21.81 4.45049 21.3L4.70049 19.33C3.36049 18.4 2.50049 16.91 2.50049 15.23C2.50049 13.47 3.44049 11.92 4.88049 11C5.77049 10.42 6.84049 10.09 8.00049 10.09C11.0405 10.09 13.5005 12.39 13.5005 15.23Z" stroke="white" stroke-width="1.5" stroke-linecap="round" stroke-linejoin="round"/>
</svg>
