<svg width="25" height="24" viewBox="0 0 25 24" fill="none" xmlns="http://www.w3.org/2000/svg">
<path d="M6.78016 22C8.50328 22 9.90016 20.6031 9.90016 18.88C9.90016 17.1569 8.50328 15.76 6.78016 15.76C5.05703 15.76 3.66016 17.1569 3.66016 18.88C3.66016 20.6031 5.05703 22 6.78016 22Z" stroke="white" stroke-width="1.5" stroke-linecap="round" stroke-linejoin="round"/>
<path d="M21.3399 16.8V4.59997C21.3399 1.99997 19.7099 1.63997 18.0599 2.08997L11.8199 3.78997C10.6799 4.09997 9.8999 4.99997 9.8999 6.29997V8.46997V9.92997V18.87" stroke="white" stroke-width="1.5" stroke-linecap="round" stroke-linejoin="round"/>
<path d="M18.2201 19.92C19.9432 19.92 21.3401 18.5231 21.3401 16.8C21.3401 15.0769 19.9432 13.68 18.2201 13.68C16.497 13.68 15.1001 15.0769 15.1001 16.8C15.1001 18.5231 16.497 19.92 18.2201 19.92Z" stroke="white" stroke-width="1.5" stroke-linecap="round" stroke-linejoin="round"/>
<path d="M9.8999 9.52002L21.3399 6.40002" stroke="white" stroke-width="1.5" stroke-linecap="round" stroke-linejoin="round"/>
</svg>
