<svg width="25" height="24" viewBox="0 0 25 24" fill="none" xmlns="http://www.w3.org/2000/svg">
<path d="M16.0804 12C16.0804 13.98 14.4804 15.58 12.5004 15.58C10.5204 15.58 8.92041 13.98 8.92041 12C8.92041 10.02 10.5204 8.41998 12.5004 8.41998C14.4804 8.41998 16.0804 10.02 16.0804 12Z" stroke="white" stroke-width="1.5" stroke-linecap="round" stroke-linejoin="round"/>
<path d="M12.5003 20.27C16.0303 20.27 19.3203 18.19 21.6103 14.59C22.5103 13.18 22.5103 10.81 21.6103 9.39997C19.3203 5.79997 16.0303 3.71997 12.5003 3.71997C8.97033 3.71997 5.68033 5.79997 3.39033 9.39997C2.49033 10.81 2.49033 13.18 3.39033 14.59C5.68033 18.19 8.97033 20.27 12.5003 20.27Z" stroke="white" stroke-width="1.5" stroke-linecap="round" stroke-linejoin="round"/>
</svg>
