<svg width="205" height="62" viewBox="0 0 205 62" fill="none" xmlns="http://www.w3.org/2000/svg">
<path d="M9.97725 60.568C8.78258 60.568 7.58792 59.8213 6.39325 58.328C5.24125 56.8347 4.17458 54.4667 3.19325 51.224C2.21192 47.9813 1.42258 43.7573 0.825251 38.552C0.270584 33.304 -0.00674915 26.9253 -0.00674915 19.416C-0.00674915 15.2347 0.185251 11.9707 0.56925 9.624C0.95325 7.23466 1.46525 5.48533 2.10525 4.376C2.78792 3.26667 3.55592 2.56266 4.40925 2.264C5.26258 1.96533 6.13725 1.816 7.03325 1.816C8.18525 1.816 9.16658 2.24266 9.97725 3.096C10.8306 3.94933 11.2573 5.12267 11.2573 6.616C11.2573 7.93866 10.8093 9.58133 9.91325 11.544C9.65725 13.6347 9.48658 15.512 9.40125 17.176C9.35858 18.7973 9.33725 20.5253 9.33725 22.36C9.33725 25.2613 9.37992 28.2267 9.46525 31.256C9.59325 34.2427 9.76392 37.1227 9.97725 39.896C10.1906 42.6267 10.4253 45.0587 10.6813 47.192C11.7479 44.5893 12.9426 41.7093 14.2653 38.552C15.5879 35.3947 16.9106 32.216 18.2333 29.016C19.5986 25.816 20.8786 22.808 22.0732 19.992C23.3106 17.1333 24.3559 14.7013 25.2093 12.696C26.1053 10.6907 26.7026 9.32533 27.0013 8.6C28.0679 6.04 29.2199 4.20533 30.4573 3.096C31.6946 1.98667 32.9533 1.432 34.2333 1.432C35.2573 1.432 36.1319 1.752 36.8573 2.392C37.5826 3.032 37.9453 4.248 37.9453 6.04C37.9453 6.38133 37.6039 7.384 36.9213 9.048C36.2813 10.712 35.3853 12.8453 34.2333 15.448C33.1239 18.008 31.8653 20.8667 30.4573 24.024C29.0919 27.1387 27.6839 30.36 26.2333 33.688C24.6546 37.3147 23.0759 40.7493 21.4973 43.992C19.9613 47.2347 18.4679 50.0933 17.0173 52.568C15.6093 55.0427 14.2866 56.984 13.0493 58.392C11.8546 59.8427 10.8306 60.568 9.97725 60.568Z" fill="#F1D815"/>
<path d="M87.8573 22.744C87.8573 23.256 87.6866 23.704 87.3453 24.088C87.0039 24.472 86.5773 24.7707 86.0653 24.984C85.3399 25.2827 84.0813 25.6667 82.2893 26.136C80.4973 26.6053 78.3213 27.1387 75.7613 27.736C73.2439 28.3333 70.5346 28.952 67.6333 29.592C64.7319 30.1893 61.8306 30.7653 58.9293 31.32C57.8199 35.416 56.6893 39.64 55.5373 43.992C54.3853 48.3013 53.2333 52.5467 52.0813 56.728C51.6546 58.2213 51.1426 59.352 50.5453 60.12C49.9479 60.9307 48.9239 61.336 47.4733 61.336C45.8946 61.336 44.8279 60.824 44.2733 59.8C43.7613 58.8187 43.6973 57.4747 44.0813 55.768C45.1906 51.1173 46.2146 46.7867 47.1533 42.776C48.1346 38.7653 48.9239 35.5227 49.5213 33.048C46.9613 33.4747 44.7213 33.816 42.8013 34.072C40.8813 34.2853 39.5159 34.3707 38.7052 34.328C37.8092 34.2427 37.0626 33.88 36.4652 33.24C35.8679 32.6 35.5906 31.8107 35.6332 30.872C35.7186 30.0187 36.1026 29.2933 36.7852 28.696C37.4679 28.056 38.2786 27.672 39.2172 27.544C40.5399 27.416 42.2466 27.224 44.3373 26.968C46.4279 26.712 48.7319 26.4133 51.2493 26.072C51.8039 23.896 52.4439 21.656 53.1693 19.352C53.8946 17.0053 54.6413 14.7653 55.4093 12.632C56.2199 10.456 56.9879 8.55733 57.7133 6.936C58.4386 5.31466 59.0999 4.14133 59.6973 3.416C60.1666 2.86133 60.7426 2.43466 61.4253 2.136C62.1506 1.83733 62.8546 1.688 63.5373 1.688C64.4333 1.688 65.1586 2.008 65.7133 2.648C66.2679 3.288 66.5453 4.03466 66.5453 4.888C66.5453 5.22933 66.5239 5.592 66.4813 5.976C66.4386 6.31733 66.3533 6.65866 66.2253 7C65.4146 9.13333 64.5399 11.7147 63.6013 14.744C62.7053 17.7733 61.7666 21.1013 60.7853 24.728C63.9853 24.2587 67.1213 23.7893 70.1933 23.32C73.3079 22.808 76.1239 22.3387 78.6413 21.912C81.2013 21.4427 83.2493 21.0373 84.7853 20.696C85.6386 20.3973 86.3639 20.4613 86.9613 20.888C87.5586 21.272 87.8573 21.8907 87.8573 22.744ZM100.11 61.88C99.1284 61.88 98.2324 61.4747 97.4218 60.664C96.6538 59.896 96.2698 58.5947 96.2698 56.76C96.2698 55.3947 96.3764 53.496 96.5898 51.064C96.8458 48.5893 97.3151 45.4107 97.9978 41.528C96.5044 44.6 94.9471 47.3307 93.3258 49.72C91.7044 52.1093 90.1044 53.9867 88.5258 55.352C86.9898 56.6747 85.5178 57.336 84.1098 57.336C81.8484 57.336 80.0564 56.6533 78.7338 55.288C77.4111 53.88 76.7498 51.256 76.7498 47.416C76.7498 45.5813 76.8991 43.512 77.1978 41.208C77.5391 38.904 77.9658 36.6 78.4778 34.296C78.9898 31.992 79.5018 29.944 80.0138 28.152C80.5684 26.3173 81.0591 24.952 81.4858 24.056C81.8271 23.288 82.2538 22.6907 82.7658 22.264C83.3204 21.8373 84.0244 21.624 84.8778 21.624C86.2431 21.624 87.2884 22.072 88.0138 22.968C88.7391 23.864 89.1018 24.7813 89.1018 25.72C89.1018 26.4453 88.9311 27.4907 88.5898 28.856C88.2911 30.2213 87.9071 31.736 87.4378 33.4C87.0111 35.064 86.5631 36.7707 86.0938 38.52C85.6244 40.2693 85.2191 41.912 84.8778 43.448C84.5791 44.984 84.4298 46.2853 84.4298 47.352C84.4298 48.6747 84.9418 49.336 85.9658 49.336C86.5631 49.336 87.3311 48.76 88.2698 47.608C89.2511 46.456 90.2751 44.92 91.3418 43C92.4511 41.0373 93.5604 38.904 94.6698 36.6C95.8218 34.2533 96.8671 31.8853 97.8058 29.496C98.7871 27.064 99.6191 24.824 100.302 22.776C100.728 21.496 101.304 20.6 102.03 20.088C102.755 19.576 103.587 19.32 104.526 19.32C105.976 19.32 107.086 19.7253 107.854 20.536C108.664 21.3467 109.07 22.4987 109.07 23.992C109.07 24.6747 108.963 25.8267 108.75 27.448C108.536 29.0693 108.259 30.968 107.918 33.144C107.619 35.32 107.256 37.624 106.83 40.056C106.403 42.488 105.976 44.8773 105.55 47.224C105.166 49.5707 104.782 51.7253 104.398 53.688C104.014 55.608 103.694 57.144 103.438 58.296C103.011 60.0027 102.499 61.0267 101.902 61.368C101.304 61.7093 100.707 61.88 100.11 61.88ZM124.038 56.984C121.478 56.984 119.708 56.472 118.726 55.448C117.788 54.4667 117.318 53.1013 117.318 51.352C117.318 43.928 118.705 36.184 121.478 28.12C124.294 20.0133 128.241 11.8853 133.318 3.736C134.172 2.328 134.876 1.496 135.43 1.24C135.985 0.983999 136.604 0.855999 137.286 0.855999C138.268 0.855999 139.121 1.19733 139.846 1.88C140.614 2.56267 140.998 3.45867 140.998 4.568C140.998 4.90933 140.636 5.848 139.91 7.384C139.185 8.92 138.225 10.8827 137.03 13.272C135.878 15.6613 134.62 18.3707 133.254 21.4C131.889 24.3867 130.545 27.544 129.222 30.872C127.942 34.2 126.833 37.5493 125.894 40.92C127.345 39.0853 128.988 37.208 130.822 35.288C132.7 33.3253 134.641 31.5333 136.646 29.912C138.652 28.248 140.593 26.9253 142.47 25.944C144.348 24.92 146.033 24.408 147.526 24.408C148.934 24.408 150.236 24.7493 151.43 25.432C152.668 26.1147 153.67 27.1813 154.438 28.632C155.206 30.0827 155.59 31.96 155.59 34.264C155.59 36.7813 154.865 39.3627 153.414 42.008C152.006 44.6533 149.937 47.1067 147.206 49.368C144.518 51.6293 141.212 53.464 137.286 54.872C133.404 56.28 128.988 56.984 124.038 56.984ZM126.726 49.688C130.012 49.432 132.977 48.728 135.622 47.576C138.31 46.424 140.614 44.9947 142.534 43.288C144.454 41.5813 145.926 39.7893 146.95 37.912C147.974 35.992 148.486 34.1787 148.486 32.472C148.486 32.088 148.38 31.896 148.166 31.896C147.27 31.896 146.14 32.3013 144.774 33.112C143.409 33.88 141.916 34.9253 140.294 36.248C138.673 37.5707 137.03 39.0213 135.366 40.6C133.702 42.1787 132.124 43.7573 130.63 45.336C129.137 46.9147 127.836 48.3653 126.726 49.688ZM170.385 57.176C167.74 57.176 165.607 56.2587 163.985 54.424C162.364 52.5467 161.553 49.5387 161.553 45.4C161.553 42.7547 161.852 40.1093 162.449 37.464C163.089 34.776 163.964 32.2373 165.073 29.848C166.225 27.416 167.548 25.2613 169.041 23.384C170.577 21.5067 172.263 20.0347 174.097 18.968C175.932 17.8587 177.831 17.304 179.793 17.304C183.121 17.304 185.724 18.2 187.601 19.992C189.479 21.784 190.417 24.0667 190.417 26.84C190.417 28.9733 189.82 30.9147 188.625 32.664C187.473 34.3707 185.895 35.9067 183.889 37.272C181.884 38.6373 179.644 39.8747 177.169 40.984C174.695 42.0933 172.156 43.096 169.553 43.992C169.34 45.528 169.233 46.8933 169.233 48.088C169.233 48.8133 169.639 49.176 170.449 49.176C172.369 49.176 174.417 48.8773 176.593 48.28C178.812 47.64 181.052 46.8293 183.313 45.848C185.575 44.824 187.751 43.7787 189.841 42.712C191.932 41.6027 193.831 40.5573 195.537 39.576C197.287 38.552 198.716 37.7413 199.825 37.144C200.977 36.504 201.724 36.184 202.065 36.184C203.004 36.184 203.687 36.4613 204.113 37.016C204.54 37.5707 204.753 38.168 204.753 38.808C204.753 39.1067 204.177 39.768 203.025 40.792C201.916 41.816 200.38 43.032 198.417 44.44C196.497 45.8053 194.321 47.2347 191.889 48.728C189.5 50.1787 187.004 51.5653 184.401 52.888C181.841 54.168 179.345 55.192 176.913 55.96C174.524 56.7707 172.348 57.176 170.385 57.176ZM170.641 38.296C172.391 37.272 174.119 36.2053 175.825 35.096C177.575 33.944 179.025 32.664 180.177 31.256C181.329 29.8053 181.905 28.12 181.905 26.2C181.905 25.6453 181.756 25.2827 181.457 25.112C181.159 24.8987 180.732 24.792 180.177 24.792C178.684 24.792 177.319 25.4533 176.081 26.776C174.887 28.0987 173.82 29.8053 172.881 31.896C171.985 33.944 171.239 36.0773 170.641 38.296Z" fill="white"/>
</svg>
