<svg width="100" height="100" viewBox="0 0 35 35" fill="none" xmlns="http://www.w3.org/2000/svg">
    <path style="transform: translate(-93%, -90%)"
        d="M44.6666 60.5417V39.4583C44.6666 37.4583 43.8333 36.6667 41.7083 36.6667H36.2916C34.1666 36.6667 33.3333 37.4583 33.3333 39.4583V60.5417C33.3333 62.5417 34.1666 63.3333 36.2916 63.3333H41.6666C43.8333 63.3333 44.6666 62.5417 44.6666 60.5417Z"
        fill="#F1D815" />
    <path style="transform: translate(-93%, -90%)"
        d="M66.6667 60.5417V39.4583C66.6667 37.4583 65.8333 36.6667 63.7083 36.6667H58.3333C56.2083 36.6667 55.375 37.4583 55.375 39.4583V60.5417C55.375 62.5417 56.2083 63.3333 58.3333 63.3333H63.7083C65.8333 63.3333 66.6667 62.5417 66.6667 60.5417Z"
        fill="#F1D815" />
</svg>